<svg width="20" height="20" viewBox="0 0 20 20" fill="none" xmlns="http://www.w3.org/2000/svg">
<path d="M19.8438 18.8274L14.4158 13.3994C15.7201 11.8335 16.3706 9.82492 16.2318 7.79163C16.093 5.75833 15.1757 3.85682 13.6706 2.48266C12.1655 1.1085 10.1886 0.367493 8.1511 0.413789C6.1136 0.460085 4.17238 1.29012 2.73128 2.73122C1.29018 4.17232 0.460146 6.11354 0.41385 8.15104C0.367554 10.1885 1.10856 12.1655 2.48272 13.6705C3.85688 15.1756 5.75839 16.0929 7.79169 16.2317C9.82498 16.3705 11.8335 15.7201 13.3994 14.4157L18.8274 19.8437L19.8438 18.8274ZM1.87501 8.3437C1.87501 7.0643 2.25439 5.81363 2.96519 4.74985C3.67598 3.68607 4.68626 2.85695 5.86827 2.36735C7.05028 1.87775 8.35093 1.74964 9.60575 1.99924C10.8606 2.24884 12.0132 2.86493 12.9179 3.7696C13.8225 4.67427 14.4386 5.82689 14.6882 7.08171C14.9378 8.33652 14.8097 9.63717 14.3201 10.8192C13.8305 12.0012 13.0014 13.0115 11.9376 13.7223C10.8738 14.4331 9.62315 14.8124 8.34376 14.8124C6.62872 14.8105 4.98447 14.1284 3.77176 12.9157C2.55905 11.703 1.87691 10.0587 1.87501 8.3437Z" fill="white"/>
</svg>
